<svg width="44" height="40" viewBox="0 0 44 40" fill="none" xmlns="http://www.w3.org/2000/svg">
<path d="M13.4417 2.98033C13.2168 2.6525 12.9678 2.51839 12.5859 2.51839H12.5665C12.187 2.52335 11.8074 2.52584 11.4278 2.52584C10.1973 2.52584 8.87972 2.50596 7.27929 2.46126C7.03028 2.45381 6.78128 2.44387 6.52985 2.43642C6.04392 2.41904 5.54106 2.39917 5.04788 2.39917C4.76019 2.39917 4.49909 2.40662 4.25008 2.41904C4.03975 2.42898 4.02767 2.43146 4.0325 2.72204C4.03734 3.0002 4.03734 9.19179 4.03734 10.364C4.79162 10.3665 5.5459 10.369 6.30018 10.3715C6.5782 10.374 7.05688 10.374 7.62984 10.374C9.29555 10.374 11.8872 10.369 12.6801 10.364C13.5456 10.364 13.7777 11.1265 13.901 11.5363C14.0509 12.033 14.3241 12.0901 14.5175 12.0901C14.619 12.0901 14.7351 12.0703 14.8584 12.0305C15.2258 11.9163 15.6006 11.8219 15.9656 11.7325C16.1977 11.6754 16.4298 11.6183 16.6619 11.5537L16.819 11.5115C17.1575 11.4196 17.508 11.3252 17.832 11.1936C18.0471 11.1066 18.2019 10.9353 18.2696 10.7068C18.3421 10.4584 18.301 10.1927 18.1535 9.97164C17.392 8.83913 16.6304 7.70909 15.8665 6.57906L14.7278 4.89021C14.3023 4.24944 13.8744 3.61364 13.4417 2.98033Z" fill="#2E3192"/>
<path d="M22.0627 1.01082C22.0627 1.13252 22.1424 1.26167 22.3648 1.26167H38.988V0.538943C38.988 0.111765 38.9324 0.00248602 38.4175 0.00248602L22.4108 0C22.273 0 22.1884 0.0223544 22.14 0.0720263C22.0892 0.124182 22.0627 0.230973 22.0651 0.38744C22.0651 0.536455 22.0651 0.650705 22.0651 0.772401L22.0627 1.01082Z" fill="#ED1C24"/>
<path d="M39.138 18.9723C38.9809 18.8059 38.9857 18.5699 38.9906 18.3414C38.9906 18.3067 38.993 18.2719 38.993 18.2371C38.9978 17.1667 38.9954 16.0938 38.993 15.0234C38.9906 13.9852 38.9881 12.9471 38.993 11.9089C38.9954 11.596 38.9954 11.596 38.5892 11.5935C38.0888 11.591 37.6271 11.591 37.1556 11.5935C36.8945 11.5935 36.631 11.596 36.353 11.596L30.8748 11.5935C30.4082 11.5935 30.3332 11.6531 30.268 12.0877C30.1737 12.7086 29.504 18.1105 29.4992 18.632C29.4968 18.8928 29.5983 19.0716 29.8594 19.2678C29.9875 19.3622 30.1278 19.3821 30.3284 19.3821L30.5146 19.3796C31.9748 19.382 33.4326 19.3821 34.8904 19.3821L42.6967 19.3845C43.0545 19.3845 43.0956 19.3249 43.127 19.1759V11.5786H43.0182H42.3123C41.7224 11.5786 40.9198 11.5811 40.4338 11.5861C40.18 11.5885 40.0906 11.663 40.093 12.0679C40.093 12.1622 40.093 13.2948 40.093 14.5937C40.093 16.28 40.093 18.2495 40.093 18.6047C40.093 18.7363 40.0374 18.8679 39.9407 18.9698C39.8415 19.0716 39.711 19.1312 39.578 19.1312C39.3822 19.1287 39.2371 19.0766 39.138 18.9723Z" fill="#F37021"/>
<path d="M40.0857 10.3567C40.3129 10.3542 40.545 10.3542 40.7723 10.3542C41.1688 10.3542 41.558 10.3567 41.9206 10.3567C42.2349 10.3567 42.5274 10.3592 42.7885 10.3592C42.9094 10.3592 43.023 10.3592 43.127 10.3592V6.01039C43.127 3.92169 42.2857 2.24527 40.6925 1.15994C40.6079 1.10282 40.4507 1.04321 40.3154 1.04321C40.1558 1.04321 40.1316 1.11772 40.122 1.15001C40.0881 1.26177 40.076 1.66908 40.0857 2.362C40.0857 2.41912 40.0881 2.46135 40.0881 2.48121C40.0833 3.82235 40.0833 5.16349 40.0833 6.50463C40.0809 7.0386 40.0833 9.6414 40.0857 10.3567Z" fill="#ED1C24"/>
<path d="M20.9579 38.8485C20.9579 38.7268 20.8781 38.5977 20.6557 38.5977H4.03253V39.3204C4.03253 39.7476 4.08814 39.8568 4.60308 39.8568L20.6098 39.8593C20.7476 39.8593 20.8322 39.837 20.8806 39.7873C20.9313 39.7351 20.9579 39.6284 20.9555 39.4719C20.9555 39.3204 20.9555 39.2061 20.9555 39.0795L20.9579 38.8485Z" fill="#009DA5"/>
<path d="M4.03492 30.3495V36.3424C4.03492 36.3523 4.03492 36.3648 4.0325 36.3846C4.02525 36.5063 4.00591 36.8764 4.21382 37.1024C4.33228 37.2315 4.51602 37.2961 4.76019 37.2961H12.6995C13.1201 37.2961 13.4006 37.1173 13.7028 36.7174C14.2564 35.9848 17.6386 31.1269 17.8078 30.5929C17.8344 30.5109 17.8126 30.3917 17.7498 30.2651C17.6531 30.0713 15.3927 28.0348 15.1799 27.9528C15.0566 27.9081 14.9309 27.8833 14.8003 27.8833C14.3724 27.8833 14.0146 28.1341 13.9445 28.3701C13.6665 29.3287 13.1903 29.5225 12.5133 29.5225H12.4867C11.892 29.5175 10.6518 29.515 8.80236 29.515C5.45162 29.515 1.10483 29.5225 0.0580229 29.5225H0V33.7793C0 36.8416 2.04526 38.9154 2.7246 38.9154C2.73185 38.9154 2.73911 38.9154 2.74394 38.9154C2.78504 38.9104 2.88899 38.8632 2.93251 38.8285V30.3421C2.93251 30.0316 3.1791 29.7758 3.4813 29.7758C3.78833 29.7857 4.03492 30.0391 4.03492 30.3495Z" fill="#009DA5"/>
<path d="M39.0921 30.3495V36.3424C39.0921 36.3523 39.0921 36.3648 39.0945 36.3846C39.1017 36.5063 39.1211 36.8764 38.9132 37.1024C38.7947 37.2315 38.611 37.2961 38.3668 37.2961H30.4275C30.0068 37.2961 29.7264 37.1173 29.4242 36.7174C28.8706 35.9848 25.4884 31.1269 25.3192 30.5929C25.2926 30.5109 25.3143 30.3917 25.3772 30.2651C25.4739 30.0713 27.7343 28.0348 27.9471 27.9528C28.0704 27.9081 28.1961 27.8833 28.3266 27.8833C28.7545 27.8833 29.1123 28.1341 29.1824 28.3701C29.4605 29.3287 29.9367 29.5225 30.6136 29.5225H30.6402C31.235 29.5175 32.4752 29.515 34.3246 29.515C37.6754 29.515 42.0221 29.5225 43.069 29.5225H43.127V33.7793C43.127 36.8416 41.0817 38.9154 40.4024 38.9154C40.3951 38.9154 40.3879 38.9154 40.383 38.9154C40.3419 38.9104 40.238 38.8632 40.1945 38.8285V30.3421C40.1945 30.0316 39.9479 29.7758 39.6457 29.7758C39.3386 29.7857 39.0921 30.0391 39.0921 30.3495Z" fill="#FFDD00"/>
<path d="M2.89627 1.15001C2.87209 1.07301 2.83341 1.04321 2.75605 1.04321C2.6666 1.04321 2.54088 1.08792 2.43693 1.15994C0.843753 2.24527 0.00244141 3.92418 0.00244141 6.01039V10.3592C0.323978 10.3616 0.718042 10.3592 1.15562 10.3567C1.69957 10.3542 2.3088 10.3517 2.93012 10.3567C2.93012 9.6414 2.93495 7.0386 2.93495 6.5096V6.32829C2.93495 5.04676 2.93253 3.76275 2.93012 2.48121C2.93012 2.45886 2.93011 2.41664 2.93253 2.35703C2.9422 1.6666 2.93012 1.26177 2.89627 1.15001Z" fill="#2E3192"/>
<path d="M20.9893 0.407313C20.9845 3.64163e-06 20.9845 0 20.6219 0H20.5179C20.3728 0.00248359 18.9344 0.00248602 16.2436 0.00248602C12.5472 0.00248602 7.4848 0 5.41536 0H4.48701C4.16548 0 4.06636 0.235943 4.03493 0.389926V1.26167H20.8249C20.8902 1.26167 20.941 1.24925 20.9603 1.22938C20.999 1.18964 20.9966 1.05305 20.9966 0.961156L20.9893 0.407313Z" fill="#2E3192"/>
<path d="M38.9857 38.5977H22.1957C22.1304 38.5977 22.0796 38.6101 22.0603 38.6299C22.0216 38.6697 22.024 38.8063 22.024 38.8982L22.0288 39.452C22.0337 39.8593 22.0337 39.8593 22.3987 39.8593H22.5003C22.6453 39.8568 24.0838 39.8568 26.7745 39.8568C30.471 39.8568 35.5334 39.8593 37.6028 39.8593H38.5312C38.8527 39.8593 38.9518 39.6234 38.9832 39.4694V38.5977H38.9857Z" fill="#FFDD00"/>
<path d="M1.41911 28.256C1.77691 28.256 2.12504 28.256 2.37647 28.2585H2.39823C2.92526 28.2585 2.93493 28.2585 2.93493 27.3719V21.379C2.93493 21.0685 3.18152 20.8152 3.48372 20.8152C3.78591 20.8152 4.03492 21.0685 4.03492 21.379V27.3719C4.03492 27.3818 4.03492 27.3992 4.0325 27.4265C4.00349 27.7643 4.04701 28.0027 4.16305 28.1343C4.238 28.2188 4.34679 28.261 4.49668 28.261H12.4626C12.7454 28.261 12.801 28.2188 12.8856 27.9356C13.1661 26.9993 13.6351 22.7797 13.7004 21.9179C13.7342 21.5006 13.5819 20.8102 13.27 20.6761C13.0428 20.5792 12.8131 20.5917 12.5955 20.5966C12.5375 20.5991 12.4819 20.5991 12.4239 20.5991C11.8461 20.5991 11.2755 20.5966 10.705 20.5966C8.63797 20.5966 6.56853 20.6016 4.50151 20.609L2.889 20.614C2.59163 20.614 2.29669 20.619 1.99933 20.6215C1.40703 20.6264 0.814723 20.6339 0.222419 20.6215C0.0580249 20.6215 0.016923 20.6761 0 20.7208V28.261H0.0701115C0.37956 28.256 0.909008 28.256 1.41911 28.256Z" fill="#007DC5"/>
<path d="M3.08964 18.9696C2.99052 18.8677 2.93491 18.7361 2.93733 18.6045C2.93975 18.2493 2.93733 16.2823 2.93733 14.596C2.93733 13.2946 2.93733 12.1596 2.93733 12.0652C2.93975 11.6604 2.8503 11.5859 2.59645 11.5834C2.11052 11.5759 1.34174 11.5759 0.780862 11.5759H0.113612H0.00482178V19.1732C0.0386677 19.3222 0.0797661 19.3819 0.435148 19.3819L8.24148 19.3794C9.69927 19.3794 11.1571 19.3794 12.6149 19.3769L12.8034 19.3794C13.0041 19.3794 13.1443 19.3595 13.2724 19.2651C13.5335 19.0689 13.6326 18.8926 13.6302 18.6293C13.6254 18.1078 12.9557 12.706 12.8614 12.0851C12.7962 11.6504 12.7212 11.5908 12.2546 11.5908L6.77643 11.5883C6.50324 11.5883 6.23006 11.5883 5.95687 11.5859C5.4516 11.5834 4.94633 11.5834 4.43864 11.5859C4.03491 11.5883 4.03491 11.5883 4.03491 11.9013C4.03974 12.9369 4.03732 13.9726 4.03491 15.0058C4.03249 16.0812 4.03007 17.1566 4.03491 18.2295C4.03491 18.2642 4.03491 18.299 4.03733 18.3363C4.04216 18.5648 4.047 18.8007 3.88985 18.9671C3.79073 19.0714 3.64568 19.1236 3.45228 19.1236C3.31931 19.1285 3.18876 19.0714 3.08964 18.9696Z" fill="#005BAA"/>
<path d="M28.3024 37.0302C28.1791 36.8241 27.4031 35.6841 26.5062 34.3653C25.544 32.9522 24.4537 31.3502 23.8445 30.4239C23.5471 29.9718 23.4697 29.418 23.6293 28.8617C23.7985 28.2706 24.2071 27.7788 24.7269 27.5429C24.7825 27.528 24.8381 27.5156 24.8937 27.5007C25.0266 27.4684 25.1572 27.4336 25.2877 27.3939C25.677 27.2722 26.0735 27.1629 26.4554 27.0586C26.9148 26.9319 27.391 26.8003 27.8504 26.6513C28.329 26.4948 28.404 26.0552 28.3822 25.7125C28.3701 25.5287 28.3701 24.1528 28.3677 22.2504C28.3653 19.1533 28.3605 13.9701 28.2928 13.6472C28.2203 13.3069 27.9688 13.1679 27.7633 13.1107C27.669 13.0685 27.5627 13.0313 27.4321 13.004C27.2581 12.9667 27.0888 12.927 26.9196 12.8872C26.7504 12.84 26.5811 12.7953 26.4167 12.7481C25.9356 12.6165 25.44 12.4799 24.9493 12.3582C24.9179 12.3508 24.8864 12.3408 24.855 12.3309C24.8381 12.3259 24.8212 12.321 24.8042 12.316C24.1321 12.0751 23.5906 11.3573 23.5447 10.6147C23.5108 10.0708 23.6607 9.56169 24.004 9.06001C24.531 8.29258 28.0413 3.0522 28.213 2.7939C28.2976 2.62502 28.2783 2.57535 28.2783 2.57535C28.2783 2.57535 28.242 2.53313 28.0559 2.53064C27.5167 2.52319 26.9776 2.52568 26.4361 2.52817C26.1605 2.53065 25.8849 2.53064 25.6093 2.53064H24.5214C24.4948 2.52568 24.4682 2.52319 24.4343 2.52319C24.079 2.52319 23.5012 2.52319 22.8387 2.52319H18.8957H18.5717C18.5282 2.52319 18.4775 2.52568 18.4291 2.53313L15.3781 2.53562C15.1992 2.53562 15.0203 2.5381 14.8414 2.54307C14.6674 2.54555 14.6263 2.58529 14.6263 2.58777C14.6263 2.58777 14.6166 2.6424 14.7085 2.7939C14.8318 3.00004 15.6078 4.14001 16.5047 5.4588C17.4669 6.87196 18.5572 8.47388 19.1665 9.40026C19.4638 9.85227 19.5412 10.4061 19.3816 10.9624C19.2124 11.5535 18.8038 12.0453 18.284 12.2812C18.2284 12.2961 18.1728 12.3085 18.1172 12.3234C17.9843 12.3557 17.8537 12.3905 17.7232 12.4302C17.3339 12.5519 16.9375 12.6612 16.5555 12.7655C16.0962 12.8922 15.6199 13.0238 15.1606 13.1728C14.6819 13.3293 14.6069 13.7689 14.6287 14.1116C14.6408 14.2954 14.6408 15.6713 14.6432 17.5738C14.6456 20.6708 14.6504 25.8541 14.7181 26.1769C14.7907 26.5172 15.0421 26.6562 15.2476 26.7134C15.3419 26.7556 15.4482 26.7928 15.5788 26.8202C15.7529 26.8574 15.9221 26.8972 16.0913 26.9369C16.2605 26.9841 16.4298 27.0288 16.5942 27.076C17.0753 27.2076 17.5709 27.3442 18.0616 27.4659C18.0931 27.4733 18.1245 27.4833 18.1559 27.4932C18.1728 27.4982 18.1898 27.5032 18.2067 27.5081C18.8788 27.749 19.4203 28.4668 19.4662 29.2094C19.5001 29.7533 19.3502 30.2624 19.0069 30.7641C18.4799 31.5315 14.9696 36.7719 14.7979 37.0302C14.7133 37.1991 14.7326 37.2488 14.7326 37.2488C14.7326 37.2488 14.7689 37.291 14.9551 37.2935C15.4942 37.3009 16.0333 37.2984 16.5748 37.296C16.8504 37.2935 17.126 37.2935 17.4016 37.2935H18.4895C18.5161 37.2984 18.5427 37.3009 18.5766 37.3009C18.932 37.3009 19.5098 37.3009 20.1722 37.3009H24.1152H24.4392C24.4827 37.3009 24.5335 37.2984 24.5818 37.291L27.6328 37.2885C27.8117 37.2885 27.9906 37.286 28.1695 37.2811C28.3435 37.2786 28.3846 37.2388 28.3846 37.2363C28.3846 37.2363 28.3943 37.1817 28.3024 37.0302Z" fill="#6F2C91"/>
<path d="M43.1246 28.2558V20.4995C42.7015 20.502 41.7103 20.502 40.8352 20.502C40.1147 20.502 39.4789 20.502 39.3314 20.4995C38.7029 20.4946 38.0719 20.4921 37.4433 20.4921C37.0565 20.4921 36.6673 20.4896 36.2805 20.4896C35.8743 20.4871 35.4682 20.4846 35.062 20.4797C34.1506 20.4697 33.2392 20.4623 32.3277 20.4797C32.1561 20.4822 31.982 20.4797 31.808 20.4772C31.6895 20.4747 31.5735 20.4722 31.455 20.4722C31.0875 20.4722 30.6959 20.4896 30.3018 20.6113C29.8739 20.7454 29.5185 21.1776 29.5113 21.5774C29.4968 22.3299 30.0528 27.0612 30.2172 27.8013C30.2849 28.1117 30.3139 28.2409 30.7273 28.2459C31.3897 28.2558 34.3101 28.2558 36.7785 28.2558H38.0695C38.4853 28.2558 38.7705 28.1862 38.8963 28.0546C38.9905 27.9553 38.993 27.8212 38.9857 27.6324C38.9833 27.5976 38.9833 27.5629 38.9833 27.5306V21.3738C38.9833 21.0633 39.2299 20.8075 39.5345 20.8075C39.8367 20.8075 40.0857 21.0608 40.0857 21.3738V27.3667C40.0857 28.2583 40.2864 28.2583 40.4048 28.2583L43.1246 28.2558Z" fill="#FAA61A"/>
<path d="M38.548 2.39185C36.7542 2.39433 34.6461 2.40178 32.5694 2.42662C32.1221 2.43159 31.6628 2.45393 31.2204 2.47629C30.8311 2.49616 30.4274 2.51354 30.0309 2.52348C29.7916 2.52844 29.6345 2.62779 29.487 2.8687C29.3468 3.09719 26.5158 7.34413 26.3949 7.52543C26.3176 7.63719 26.1749 7.84829 26.0081 8.09417C25.6237 8.66291 25.0967 9.44276 24.9105 9.68119C24.6929 9.95935 24.618 10.3021 24.7026 10.6225C24.7727 10.8882 24.9444 11.0919 25.1716 11.1813C25.614 11.3551 25.9815 11.4644 26.3296 11.5265C26.76 11.6035 27.1734 11.7302 27.5263 11.8419C27.7753 11.9214 28.0437 11.9711 28.3459 11.9934C28.3918 11.9959 28.4353 11.9984 28.4764 11.9984C28.8657 11.9984 28.9986 11.8618 29.1534 11.3079C29.3298 10.6721 29.7046 10.3592 30.3017 10.3567C30.9303 10.3518 32.3784 10.3567 33.9546 10.3617C35.8524 10.3667 37.934 10.3716 38.9856 10.3642C38.9856 9.3012 38.9856 3.8671 38.9832 2.87863C38.9808 2.42661 38.9493 2.39185 38.548 2.39185Z" fill="#ED1C24"/>
</svg>
